IKResults
version=1
nRows=45
nColumns=24
inDegrees=yes

Units are S.I. units (second, meters, Newtons, ...)
If the header above contains a line with 'inDegrees', this indicates whether rotational values are in degrees (yes) or radians (no).

endheader
time	pelvis_tilt	pelvis_list	pelvis_rotation	pelvis_tx	pelvis_ty	pelvis_tz	hip_flexion_r	hip_adduction_r	hip_rotation_r	knee_angle_r	ankle_angle_r	subtalar_angle_r	mtp_angle_r	hip_flexion_l	hip_adduction_l	hip_rotation_l	knee_angle_l	ankle_angle_l	subtalar_angle_l	mtp_angle_l	lumbar_extension	lumbar_bending	lumbar_rotation
6.900000	10.666397	2.251859	-181.351413	0.301725	0.607258	-1.228232	65.702365	-25.065814	-15.425098	-94.757128	35.699631	9.552106	0.000000	68.467312	-32.967261	-11.487287	-94.430081	33.991017	12.469949	0.000000	-7.661413	1.491965	5.295547
6.905000	10.629345	2.213752	-181.343293	0.302197	0.603035	-1.228087	66.265462	-25.262425	-15.186085	-95.604284	35.986819	9.525910	0.000000	69.191354	-33.078916	-10.896574	-95.414573	34.165120	13.022018	0.000000	-7.806621	1.516731	5.157214
6.910000	10.630383	2.233221	-181.319780	0.302737	0.598747	-1.228013	66.829499	-25.421969	-15.010346	-96.422478	36.285520	9.494206	0.000000	69.728977	-33.154598	-10.800976	-96.101165	34.592659	12.609091	0.000000	-7.938100	1.548368	5.108113
6.915000	10.556082	2.269742	-181.327112	0.303154	0.594552	-1.228051	67.303547	-25.550378	-14.818632	-97.252243	36.617781	9.639475	0.000000	70.292273	-33.370302	-10.568273	-97.271796	35.242303	12.797221	0.000000	-8.109819	1.538076	5.282099
6.920000	10.521621	2.309108	-181.319180	0.303590	0.590449	-1.227984	67.817638	-25.696617	-14.656439	-98.072606	36.900590	9.632279	0.000000	70.910653	-33.497995	-10.195149	-98.077457	35.552892	12.856808	0.000000	-8.275249	1.650989	5.138559
6.925000	10.502760	2.326501	-181.318912	0.304132	0.586227	-1.227737	68.389069	-25.877833	-14.468691	-98.901101	37.122171	9.620605	0.000000	71.595457	-33.578587	-9.767352	-98.765057	35.624979	12.805443	0.000000	-8.400253	1.625181	5.343264
6.930000	10.438814	2.334839	-181.304708	0.304570	0.582100	-1.227644	68.886196	-26.059743	-14.295160	-99.719324	37.408932	9.547111	0.000000	72.159467	-33.687103	-9.441805	-99.566507	35.952618	12.812889	0.000000	-8.609368	1.660194	5.285644
6.935000	10.416756	2.392552	-181.316308	0.305038	0.577908	-1.227600	69.397306	-26.186903	-14.122355	-100.502889	37.623596	9.714560	0.000000	72.777087	-33.860068	-9.110836	-100.519274	36.393886	13.015766	0.000000	-8.747516	1.712649	5.357309
6.940000	10.388148	2.407740	-181.299317	0.305528	0.573777	-1.227491	69.927834	-26.354431	-13.909668	-101.290831	37.891155	9.778468	0.000000	73.392018	-33.953872	-8.764984	-101.309101	36.666813	13.089538	0.000000	-8.914229	1.733513	5.394383
6.945000	10.369621	2.430967	-181.295805	0.305980	0.569716	-1.227394	70.457432	-26.501841	-13.691015	-102.058117	38.164507	9.896323	0.000000	74.020023	-34.072750	-8.420155	-102.078359	36.924855	13.170810	0.000000	-9.057958	1.776501	5.409167
6.950000	10.358376	2.460493	-181.303048	0.306466	0.565675	-1.227311	70.995703	-26.637066	-13.482684	-102.815828	38.428690	10.011431	0.000000	74.657151	-34.195410	-8.067832	-102.839167	37.158920	13.214514	0.000000	-9.208377	1.807487	5.472279
6.955000	10.343625	2.478665	-181.295738	0.306948	0.561668	-1.227294	71.526839	-26.778239	-13.280632	-103.571218	38.663854	10.096095	0.000000	75.275792	-34.293416	-7.718997	-103.575172	37.403733	13.263372	0.000000	-9.350289	1.838116	5.484642
6.960000	10.326910	2.487361	-181.258867	0.307402	0.557645	-1.227225	72.056186	-26.942835	-13.055630	-104.320923	38.909012	10.191999	0.000000	75.891860	-34.367584	-7.382911	-104.306443	37.632143	13.344565	0.000000	-9.508362	1.829806	5.520820
6.965000	10.316812	2.471697	-181.211937	0.307848	0.553642	-1.227074	72.599652	-27.131482	-12.813933	-105.055866	39.124576	10.236877	0.000000	76.487127	-34.409085	-7.085153	-105.028323	37.891393	13.422319	0.000000	-9.638905	1.865491	5.441149
6.970000	10.272769	2.480876	-181.195903	0.308236	0.549706	-1.227023	73.095833	-27.277649	-12.603478	-105.788217	39.368648	10.258077	0.000000	77.051121	-34.508215	-6.769445	-105.744587	38.147244	13.473060	0.000000	-9.818145	1.865795	5.475381
6.975000	10.270636	2.498613	-181.193610	0.308674	0.545760	-1.226922	73.645138	-27.397807	-12.376381	-106.506939	39.592671	10.311150	0.000000	77.682456	-34.604750	-6.428698	-106.477668	38.336885	13.532628	0.000000	-9.953166	1.859188	5.597400
6.980000	10.286753	2.491911	-181.187045	0.309139	0.541875	-1.226884	74.228422	-27.527371	-12.132718	-107.221999	39.759355	10.361503	0.000000	78.311953	-34.696748	-6.126031	-107.167648	38.495769	13.607409	0.000000	-10.057100	1.886951	5.587549
6.985000	10.303634	2.478960	-181.153037	0.309599	0.538025	-1.226822	74.798937	-27.683119	-11.898287	-107.921699	39.932089	10.386580	0.000000	78.932009	-34.756363	-5.835050	-107.854543	38.662966	13.707923	0.000000	-10.164209	1.881494	5.568762
6.990000	10.273368	2.454476	-181.087483	0.309978	0.534245	-1.226762	75.301930	-27.870647	-11.653865	-108.614175	40.123178	10.473135	0.000000	79.486313	-34.787993	-5.563605	-108.484860	38.887186	13.783446	0.000000	-10.324904	1.835573	5.581419
6.995000	10.228840	2.436580	-181.060945	0.310373	0.530507	-1.226771	75.793980	-28.012153	-11.414630	-109.297639	40.340342	10.482341	0.000000	80.020035	-34.871888	-5.297463	-109.148090	39.089517	13.864849	0.000000	-10.505595	1.781531	5.645925
7.000000	10.226420	2.412026	-181.041501	0.310820	0.526760	-1.226765	76.355013	-28.151160	-11.152500	-109.975856	40.484152	10.562537	0.000000	80.596099	-34.949180	-5.028338	-109.792638	39.253118	13.987245	0.000000	-10.616534	1.781293	5.620894
7.005000	10.231076	2.428559	-181.024088	0.311176	0.523024	-1.226690	76.885833	-28.283938	-10.903032	-110.659926	40.644726	10.765173	0.000000	81.207970	-35.035758	-4.706324	-110.454688	39.411644	14.097628	0.000000	-10.730414	1.776103	5.708351
7.010000	10.201408	2.427547	-181.021439	0.311505	0.519395	-1.226543	77.383690	-28.417189	-10.664629	-111.309704	40.834710	10.834893	0.000000	81.748081	-35.131585	-4.432108	-111.104593	39.585307	14.146805	0.000000	-10.883526	1.778964	5.780911
7.015000	10.169665	2.396482	-181.016659	0.311891	0.515787	-1.226547	77.900208	-28.544430	-10.435734	-111.953960	40.993607	10.751151	0.000000	82.267863	-35.234662	-4.191855	-111.726492	39.755452	14.265953	0.000000	-11.032413	1.759508	5.712811
7.020000	10.157996	2.382692	-181.019871	0.312267	0.512154	-1.226552	78.420667	-28.630576	-10.126098	-112.603432	41.167200	10.931288	0.000000	82.823623	-35.334638	-3.918116	-112.346831	39.935319	14.333798	0.000000	-11.174798	1.735572	5.799163
7.025000	10.116464	2.365385	-180.980064	0.312570	0.508640	-1.226463	78.894822	-28.783775	-9.872625	-113.234995	41.316076	11.036819	0.000000	83.338695	-35.397247	-3.662935	-112.956509	40.074161	14.459993	0.000000	-11.318104	1.773085	5.728673
7.030000	10.098018	2.364315	-180.985626	0.312910	0.505098	-1.226426	79.407656	-28.875734	-9.613809	-113.863273	41.462057	11.143975	0.000000	83.901052	-35.511258	-3.383759	-113.568901	40.199660	14.579797	0.000000	-11.457414	1.716996	5.881651
7.035000	10.076877	2.361383	-180.984121	0.313241	0.501655	-1.226393	79.903180	-28.966468	-9.376045	-114.478576	41.619124	11.174914	0.000000	84.441963	-35.602760	-3.104013	-114.162488	40.359917	14.670417	0.000000	-11.568197	1.773642	5.768466
7.040000	10.046219	2.365169	-180.975706	0.313521	0.498238	-1.226286	80.374185	-29.071080	-9.137971	-115.078088	41.762718	11.257861	0.000000	84.967659	-35.686078	-2.826880	-114.756620	40.494389	14.746171	0.000000	-11.710720	1.777859	5.852840
7.045000	10.008984	2.360092	-180.963475	0.313842	0.494787	-1.226317	80.842161	-29.160048	-8.885063	-115.676538	41.907773	11.319601	0.000000	85.489967	-35.771184	-2.547198	-115.342816	40.632113	14.861469	0.000000	-11.858068	1.724151	5.967240
7.050000	9.999510	2.355577	-180.933480	0.314184	0.491351	-1.226293	81.339591	-29.268230	-8.629468	-116.264829	41.991422	11.439215	0.000000	86.046478	-35.832260	-2.264293	-115.912481	40.726630	15.010098	0.000000	-11.966437	1.781452	5.856216
7.055000	9.970814	2.351204	-180.905296	0.314478	0.488007	-1.226204	81.817066	-29.376510	-8.375443	-116.848430	42.127000	11.476762	0.000000	86.574565	-35.880218	-1.981531	-116.478020	40.858432	15.113048	0.000000	-12.091647	1.787081	5.881073
7.060000	9.972939	2.386358	-180.915831	0.314774	0.484676	-1.226163	82.305519	-29.436920	-8.168482	-117.420360	42.241447	11.529435	0.000000	87.166133	-35.966832	-1.638828	-117.049126	40.959454	15.193697	0.000000	-12.193875	1.800593	5.988572
7.065000	9.939474	2.396294	-180.885091	0.315031	0.481405	-1.226032	82.759413	-29.552237	-7.936880	-117.989996	42.369170	11.579394	0.000000	87.688076	-36.003172	-1.337647	-117.609130	41.095838	15.273058	0.000000	-12.313101	1.872891	5.899779
7.070000	9.904403	2.402024	-180.872076	0.315331	0.478108	-1.225999	83.220694	-29.654173	-7.777920	-118.541550	42.437064	11.390835	0.000000	88.216616	-36.070997	-1.037567	-118.158952	41.196805	15.405052	0.000000	-12.457545	1.847291	5.979178
7.075000	9.878160	2.417302	-180.822699	0.315640	0.474850	-1.225939	83.655111	-29.760133	-7.495431	-119.095213	42.571254	11.634573	0.000000	88.758398	-36.085451	-0.724257	-118.690146	41.299720	15.498773	0.000000	-12.572519	1.866625	5.932133
7.080000	9.834594	2.405817	-180.750348	0.315904	0.471699	-1.225876	84.084918	-29.911067	-7.309069	-119.623684	42.712870	11.551516	0.000000	89.243412	-36.072734	-0.454787	-119.201819	41.382065	15.589842	0.000000	-12.709444	1.908574	5.804461
7.085000	9.813263	2.436825	-180.739420	0.316155	0.468538	-1.225847	84.528191	-29.958693	-7.037735	-120.176210	42.790015	11.735382	0.000000	89.792178	-36.129091	-0.124144	-119.723396	41.459755	15.635182	0.000000	-12.822153	1.893163	5.912058
7.090000	9.781584	2.461402	-180.695796	0.316427	0.465435	-1.225743	84.957335	-30.056913	-6.812958	-120.707507	42.901842	11.813498	0.000000	90.323139	-36.134961	0.193841	-120.241298	41.542973	15.726659	0.000000	-12.936250	1.928309	5.922426
7.095000	9.751080	2.457303	-180.648345	0.316675	0.462360	-1.225683	85.392522	-30.144313	-6.554086	-121.223767	43.034588	11.848899	0.000000	90.821429	-36.140681	0.471062	-120.747597	41.630279	15.818444	0.000000	-13.052267	1.928865	5.872463
7.100000	9.710690	2.460489	-180.600172	0.316940	0.459278	-1.225638	85.817930	-30.230655	-6.370928	-121.730116	43.087670	11.646266	0.000000	91.320947	-36.144442	0.763745	-121.247099	41.685909	15.942332	0.000000	-13.167662	1.984439	5.749685
7.105000	9.667707	2.458508	-180.544992	0.317195	0.456283	-1.225587	86.227625	-30.303204	-6.115146	-122.230390	43.191741	11.655109	0.000000	91.792270	-36.125634	1.045042	-121.728817	41.765132	16.000038	0.000000	-13.287958	1.995730	5.711445
7.110000	9.634775	2.495123	-180.539407	0.317425	0.453266	-1.225578	86.639253	-30.311847	-5.844582	-122.745448	43.272035	11.849199	0.000000	92.319594	-36.166429	1.389417	-122.219225	41.824555	16.066906	0.000000	-13.400384	1.976448	5.837457
7.115000	9.582603	2.534131	-180.518422	0.317605	0.450332	-1.225503	87.026681	-30.355343	-5.643906	-123.245576	43.376792	11.846480	0.000000	92.813855	-36.183460	1.733680	-122.709125	41.908399	16.142437	0.000000	-13.521154	2.017923	5.861847
7.120000	9.546520	2.560533	-180.525058	0.317864	0.447465	-1.225565	87.431012	-30.366986	-5.503793	-123.706393	43.442998	11.635577	0.000000	93.307740	-36.222397	2.063075	-123.175191	41.966028	16.205451	0.000000	-13.628515	2.016677	5.925930
